{
  "title": "Deadpool (2016) CamRip | Rus",
  "uid": 13700050,
  "size": 781913812,
  "categoryP": "video",
  "categoryS": "movies",
  "magnet": "?xt=urn:btih:6bac430768a881f942d0806fc35973906eb09598&amp;dn=Deadpool+%282016%29+CamRip+%7C+Rus&amp;tr=udp%3A%2F%2Ftracker.leechers-paradise.org%3A6969&amp;tr=udp%3A%2F%2Fzer0day.ch%3A1337&amp;tr=udp%3A%2F%2Fopen.demonii.com%3A1337&amp;tr=udp%3A%2F%2Ftracker.coppersurfer.tk%3A6969&amp;tr=udp%3A%2F%2Fexodus.desync.com%3A6969",
  "seeders": 45,
  "leechers": 4,
  "uploader": "nbdjod",
  "files": 1,
  "time": 1456761806,
  "description": "Deadpool (2016) CamRip | Rus\r\n\r\nMI:\r\nGeneral\r\nComplete name                  : C:torrentDeadpool.2016.745MB.avi\r\nFormat                         : AVI\r\nFormat/Info                    : Audio Video Interleave\r\nFile size                      : 746 MiB\r\nDuration                       : 1h 40mn\r\nOverall bit rate               : 1 035 Kbps\r\nWriting application            : Lavf56.40.101\r\nWriting library                : VirtualDub build 35576/release\r\n\r\nVideo\r\nID                             : 0\r\nFormat                         : MPEG-4 Visual\r\nFormat profile                 : Advanced   \r\nFormat settings, BVOP          : 2\r\nFormat settings, QPel          : No\r\nFormat settings, GMC           : No warppoints\r\nFormat settings, Matrix        : Default (H.263)\r\nMuxing mode                    : Packed bitstream\r\nCodec ID                       : XVID\r\nCodec ID/Hint                  : XviD\r\nDuration                       : 1h 40mn\r\nBit rate                       : 898 Kbps\r\nWidth                          : 720 pixels\r\nHeight                         : 320 pixels\r\nDisplay aspect ratio           : 2.25:1\r\nFrame rate                     : 23.976 (23976/1000) fps\r\nColor space                    : YUV\r\nChroma subsampling             : 4:2:0\r\nBit depth                      : 8 bits\r\nScan type                      : Progressive\r\nCompression mode               : Lossy\r\nBits/(Pixel*Frame)             : 0.163\r\nStream size                    : 647 MiB (87%)\r\nWriting library                : XviD 73\r\n\r\nAudio\r\nID                             : 1\r\nFormat                         : MPEG Audio\r\nFormat version                 : Version 1\r\nFormat profile                 : Layer 3\r\nMode                           : Joint stereo\r\nMode extension                 : MS Stereo\r\nCodec ID                       : 55\r\nCodec ID/Hint                  : MP3\r\nDuration                       : 1h 40mn\r\nBit rate mode                  : Constant\r\nBit rate                       : 128 Kbps\r\nChannel(s)                     : 2 channels\r\nSampling rate                  : 44.1 KHz\r\nCompression mode               : Lossy\r\nStream size                    : 92.0 MiB (12%)\r\nAlignment                      : Split accross interleaves\r\nInterleave, duration           : 42 ms (1.00 video frame)\r\nInterleave, preload duration   : 501 ms\r\n\r\nScreens: \nhttp://i2.imageban.ru/out/2016/02/29/7f081a8607c4acf24b6f3b6476cd2433.png \nhttp://i6.imageban.ru/out/2016/02/29/9186e893cb85f0226d3477570dbf429b.png \nhttp://i2.imageban.ru/out/2016/02/29/05c7fac660c367d1aba4ab9692dc4f54.png \nhttp://i6.imageban.ru/out/2016/02/29/d723b837402be6feca414703962b9b25.png \nhttp://i6.imageban.ru/out/2016/02/29/d46fc260e7e6cc35257d77646b1e16bd.png \nhttp://i2.imageban.ru/out/2016/02/29/c35c951dfa1d027b0303b6f9420f6883.png \nhttp://i6.imageban.ru/out/2016/02/29/d4faf40c2fbb7ea88b0204eff5e6ef6b.png \nhttp://i1.imageban.ru/out/2016/02/29/32fe0f48d13cd101d89bccb85a3d0ade.png",
  "parsed": {
    "xt": "urn:btih:6bac430768a881f942d0806fc35973906eb09598",
    "dn": "Deadpool (2016) CamRip | Rus",
    "tr": [
      "udp://exodus.desync.com:6969",
      "udp://open.demonii.com:1337",
      "udp://tracker.coppersurfer.tk:6969",
      "udp://tracker.leechers-paradise.org:6969",
      "udp://zer0day.ch:1337"
    ],
    "infoHash": "6bac430768a881f942d0806fc35973906eb09598",
    "infoHashBuffer": {
      "type": "Buffer",
      "data": [
        107,
        172,
        67,
        7,
        104,
        168,
        129,
        249,
        66,
        208,
        128,
        111,
        195,
        89,
        115,
        144,
        110,
        176,
        149,
        152
      ]
    },
    "name": "Deadpool (2016) CamRip | Rus",
    "announce": [
      "udp://exodus.desync.com:6969",
      "udp://open.demonii.com:1337",
      "udp://tracker.coppersurfer.tk:6969",
      "udp://tracker.leechers-paradise.org:6969",
      "udp://zer0day.ch:1337"
    ],
    "urlList": []
  },
  "previous": 49,
  "peers": 59,
  "last_updated": "2016-12-25T03:51:42.415Z"
}